<svg xmlns="http://www.w3.org/2000/svg" xmlns:xlink="http://www.w3.org/1999/xlink" version="1.1" x="0px" y="0px" viewBox="0 0 100 125" enable-background="new 0 0 100 100" xml:space="preserve"><g><path fill="#000000" d="M75.689,60.901c2.28-0.656,3.955-2.757,3.955-5.246c0-3.013-2.45-5.463-5.462-5.463   c-3.013,0-5.463,2.45-5.463,5.463c0,2.488,1.674,4.589,3.954,5.246c-2.732,0.678-4.766,3.143-4.766,6.081v8.455h1.479h0.82v11.964   h2.959V75.437h2.029v11.964h2.959V75.437h0.82h1.479v-8.455C80.454,64.044,78.42,61.579,75.689,60.901z M74.182,58.159   c-1.382,0-2.504-1.123-2.504-2.503c0-1.381,1.122-2.503,2.504-2.503c1.38,0,2.503,1.122,2.503,2.503   C76.685,57.036,75.562,58.159,74.182,58.159z"/><path fill="#000000" d="M97.373,70.767v-4.663c0-2.431-1.65-4.463-3.882-5.092c2.313-0.63,4.021-2.743,4.021-5.254   c0-3.004-2.445-5.448-5.449-5.448s-5.45,2.444-5.45,5.448c0,0.852,0.202,1.655,0.552,2.374c-0.17-0.091-0.378-0.156-0.65-0.164   c-1.325-0.041-2.033,2.019-2.374,2.568c0.953,0.551,3.666,0.612,3.666-1.276c0-0.025-0.002-0.066-0.007-0.117   c0.713,0.896,1.7,1.56,2.834,1.869c-2.232,0.629-3.883,2.661-3.883,5.092l0.003,4.628l-2.332,9.019h3.676v7.65h2.959v-7.65h2.012   v7.65h2.959v-7.65h3.675L97.373,70.767z M89.585,55.889c0.688-0.283,1.597-0.763,2.369-1.51c0.678,0.564,1.566,1.034,2.577,1.162   c0.006,0.073,0.022,0.144,0.022,0.218c0,1.373-1.117,2.491-2.49,2.491C90.734,58.25,89.654,57.201,89.585,55.889z M88.246,76.793   l1.405-5.425l0.058-5.263c0-1.297,1.055-2.353,2.352-2.353s2.353,1.056,2.353,2.353l0.003,4.807l1.461,5.881H88.246z"/><path fill="#000000" d="M7.772,60.901c2.28-0.656,3.955-2.757,3.955-5.246c0-3.013-2.45-5.463-5.462-5.463s-5.462,2.45-5.462,5.463   c0,2.488,1.674,4.589,3.954,5.246c-2.732,0.678-4.766,3.143-4.766,6.081v8.46h2.301v11.959H5.25V75.442h-2.3v-8.46   c0-1.827,1.487-3.313,3.314-3.313s3.315,1.486,3.315,3.313v8.46h-2.3v11.959h2.959V75.438h2.3v-8.456   C12.536,64.044,10.504,61.579,7.772,60.901z M3.761,55.655c0-1.381,1.123-2.503,2.503-2.503c1.38,0,2.503,1.122,2.503,2.503   c0,1.38-1.123,2.503-2.503,2.503C4.884,58.159,3.761,57.036,3.761,55.655z"/><path fill="#000000" d="M30.097,66.105c0-2.431-1.65-4.463-3.882-5.092c2.313-0.63,4.021-2.743,4.021-5.254   c0-3.004-2.444-5.448-5.449-5.448c-3.005,0-5.449,2.444-5.449,5.448c0,0.852,0.202,1.655,0.552,2.374   c-0.17-0.091-0.378-0.156-0.65-0.164c-1.325-0.041-2.033,2.019-2.374,2.568c0.953,0.551,3.666,0.612,3.666-1.276   c0-0.025-0.002-0.066-0.007-0.117c0.712,0.896,1.7,1.56,2.834,1.869c-2.231,0.629-3.882,2.661-3.882,5.092l0.003,4.628   l-2.332,9.019h3.676v7.65h2.959v-7.65h2.012v7.65h2.959v-7.65h3.674l-2.328-8.984V66.105z M24.786,58.25   c-1.329,0-2.408-1.049-2.477-2.361c0.688-0.283,1.597-0.763,2.369-1.51c0.679,0.564,1.566,1.034,2.577,1.162   c0.006,0.073,0.022,0.144,0.022,0.218C27.276,57.132,26.159,58.25,24.786,58.25z"/><path fill="#000000" d="M60.426,51.969V41.841c0-5.953-4.844-10.795-10.798-10.795c-5.951,0-10.795,4.843-10.795,10.795v10.128   h2.83l-3.894,20.453h7.488v14.98h2.959v-14.98h2.959v14.98h2.959v-14.98h7.352l-3.892-20.453H60.426z M49.629,34.004   c0.502,0,0.991,0.052,1.467,0.143c-0.073,0.748-0.698,1.337-1.466,1.337c-0.767,0-1.392-0.589-1.464-1.337   C48.64,34.056,49.128,34.004,49.629,34.004z M57.467,51.896H41.793V41.841c0-2.761,1.439-5.188,3.602-6.584   c0.545,1.834,2.226,3.185,4.235,3.185c2.009,0,3.691-1.35,4.236-3.184c2.163,1.396,3.602,3.823,3.602,6.583V51.896z"/><path fill="#000000" d="M64.292,22.855c-0.961-1.356-2.569-3.625-4.939-3.625c-0.221,0-0.445,0.02-0.671,0.063   c-0.123,0.024-0.22,0.069-0.334,0.1c-1.01-3.938-4.58-6.861-8.828-6.861c-5.031,0-9.123,4.092-9.123,9.122   c0,5.031,4.093,9.123,9.123,9.123c3.387,0,6.342-1.859,7.916-4.607c0.733,0.464,1.653,0.727,2.738,0.727   c1.585,0,3.329-0.552,4.338-1.375l1.183-0.962l-0.997-1.152C64.591,23.282,64.455,23.086,64.292,22.855z M51.502,15.824   c1.121,0.382,2.098,1.076,2.825,1.982c-1.317-0.139-2.578-0.522-3.38-0.874C51.166,16.515,51.347,16.148,51.502,15.824z    M43.355,21.654c0-2.989,2.14-5.486,4.968-6.045c-1.266,2.404-3.131,5.012-4.964,6.132C43.359,21.712,43.355,21.684,43.355,21.654z    M49.52,27.818c-2.306,0-4.318-1.275-5.375-3.155c2.138-1.007,3.951-3.131,5.298-5.178c1.547,0.765,3.812,1.327,5.895,1.327   c0.095,0,0.186-0.009,0.28-0.011c0.039,0.28,0.066,0.563,0.066,0.853C55.684,25.054,52.919,27.818,49.52,27.818z M60.174,23.938   c-1.403,0-1.51-0.658-1.553-0.932c-0.093-0.67,0.369-0.759,0.618-0.807c0.037-0.007,0.076-0.011,0.113-0.011   c0.604,0,1.384,0.86,1.961,1.608C60.961,23.882,60.573,23.938,60.174,23.938z"/></g></svg>