<svg xmlns="http://www.w3.org/2000/svg" xmlns:xlink="http://www.w3.org/1999/xlink" version="1.1" x="0px" y="0px" viewBox="0 0 100 125" style="enable-background:new 0 0 100 100;" xml:space="preserve"><style type="text/css">
	.st0{fill:none;stroke:#000000;stroke-width:2;stroke-linecap:round;stroke-linejoin:round;stroke-miterlimit:10;}
</style><path d="M89,22.83301h-2.78223v-5.89258C86.21777,13.11328,83.104,10,79.27686,10s-6.94043,3.11328-6.94043,6.94043v5.89258  h-5.63672v-5.89258c0-3.82715-3.11377-6.94043-6.94092-6.94043s-6.94043,3.11328-6.94043,6.94043v5.89258h-5.63672v-5.89258  c0-3.82715-3.11328-6.94043-6.94043-6.94043s-6.94092,3.11328-6.94092,6.94043v5.89258h-5.63672v-5.89258  c0-3.82715-3.11328-6.94043-6.94043-6.94043s-6.94092,3.11328-6.94092,6.94043v5.89258H11c-0.55225,0-1,0.44727-1,1v11.88184  c0,0.55273,0.44775,1,1,1h2.78223v20.46191H11c-0.55225,0-1,0.44727-1,1v11.88184c0,0.55273,0.44775,1,1,1h2.78223V89  c0,0.55273,0.44775,1,1,1h11.88135c0.55225,0,1-0.44727,1-1V71.05859h5.63672V89c0,0.55273,0.44775,1,1,1h11.88135  c0.55225,0,1-0.44727,1-1V71.05859h5.63672V89c0,0.55273,0.44775,1,1,1h11.88135c0.55225,0,1-0.44727,1-1V71.05859h5.63672V89  c0,0.55273,0.44775,1,1,1h11.88135c0.55225,0,1-0.44727,1-1V71.05859H89c0.55225,0,1-0.44727,1-1V58.17676c0-0.55273-0.44775-1-1-1  h-2.78223V36.71484H89c0.55225,0,1-0.44727,1-1V23.83301C90,23.28027,89.55225,22.83301,89,22.83301z M74.33643,16.94043  c0-2.72461,2.21631-4.94043,4.94043-4.94043c2.72461,0,4.94092,2.21582,4.94092,4.94043v5.89258h-9.88135V16.94043z   M54.81836,16.94043c0-2.72461,2.21631-4.94043,4.94043-4.94043c2.72461,0,4.94092,2.21582,4.94092,4.94043v5.89258h-9.88135  V16.94043z M35.30029,16.94043C35.30029,14.21582,37.5166,12,40.24121,12c2.72412,0,4.94043,2.21582,4.94043,4.94043v5.89258  h-9.88135V16.94043z M15.78223,16.94043c0-2.72461,2.21631-4.94043,4.94092-4.94043c2.72412,0,4.94043,2.21582,4.94043,4.94043  v5.89258h-9.88135V16.94043z M15.78223,36.71484h9.88135v20.46191h-9.88135V36.71484z M66.69971,57.17676V36.71484h5.63672v20.46191  H66.69971z M64.69971,57.17676h-9.88135V36.71484h9.88135V57.17676z M52.81836,57.17676h-5.63672V36.71484h5.63672V57.17676z   M45.18164,57.17676h-9.88135V36.71484h9.88135V57.17676z M33.30029,57.17676h-5.63672V36.71484h5.63672V57.17676z M25.66357,88  h-9.88135V71.05859h9.88135V88z M45.18164,88h-9.88135V71.05859h9.88135V88z M64.69971,88h-9.88135V71.05859h9.88135V88z   M84.21777,88h-9.88135V71.05859h9.88135V88z M88,69.05859H12v-9.88184h76V69.05859z M84.21777,57.17676h-9.88135V36.71484h9.88135  V57.17676z M88,34.71484H12v-9.88184h76V34.71484z"/><path d="M19.18164,30.77441h3.08301c0.55225,0,1-0.44727,1-1s-0.44775-1-1-1h-3.08301c-0.55225,0-1,0.44727-1,1  S18.62939,30.77441,19.18164,30.77441z"/><path d="M19.18164,65.11816h3.08301c0.55225,0,1-0.44727,1-1s-0.44775-1-1-1h-3.08301c-0.55225,0-1,0.44727-1,1  S18.62939,65.11816,19.18164,65.11816z"/><path d="M38.69922,30.77441h3.0835c0.55225,0,1-0.44727,1-1s-0.44775-1-1-1h-3.0835c-0.55225,0-1,0.44727-1,1  S38.14697,30.77441,38.69922,30.77441z"/><path d="M38.69922,65.11816h3.0835c0.55225,0,1-0.44727,1-1s-0.44775-1-1-1h-3.0835c-0.55225,0-1,0.44727-1,1  S38.14697,65.11816,38.69922,65.11816z"/><path d="M58.21729,30.77441h3.0835c0.55225,0,1-0.44727,1-1s-0.44775-1-1-1h-3.0835c-0.55225,0-1,0.44727-1,1  S57.66504,30.77441,58.21729,30.77441z"/><path d="M58.21729,65.11816h3.0835c0.55225,0,1-0.44727,1-1s-0.44775-1-1-1h-3.0835c-0.55225,0-1,0.44727-1,1  S57.66504,65.11816,58.21729,65.11816z"/><path d="M77.73535,30.77441h3.08301c0.55225,0,1-0.44727,1-1s-0.44775-1-1-1h-3.08301c-0.55225,0-1,0.44727-1,1  S77.18311,30.77441,77.73535,30.77441z"/><path d="M77.73535,65.11816h3.08301c0.55225,0,1-0.44727,1-1s-0.44775-1-1-1h-3.08301c-0.55225,0-1,0.44727-1,1  S77.18311,65.11816,77.73535,65.11816z"/></svg>