<?xml version="1.0" encoding="UTF-8"?>
<svg viewBox="0 0 771.34796 235.78273" xmlns="http://www.w3.org/2000/svg">
 <g transform="translate(113.58 -763.47)">
  <g transform="translate(0 13.823)">
   <path transform="rotate(46.211)" d="m924.77 324c5.9045 0 10.658 5.7217 10.658 12.829v23.825c0 7.1072-4.7534 12.829-10.658 12.829s-10.658-5.7217-10.658-12.829v-23.825c0-7.1072 4.7534-12.829 10.658-12.829z" fill="#003380"/>
   <path transform="matrix(-.69201,.72189,.72189,.69201,0,0)" d="m325.34 949.32c5.9045 0 10.658 5.7217 10.658 12.829v23.825c0 7.1072-4.7534 12.829-10.658 12.829s-10.658-5.7217-10.658-12.829v-23.825c0-7.1072 4.7534-12.829 10.658-12.829z" fill="#003380"/>
   <path d="m394.29 879.23h77.65v73.083h-77.65v-73.083z" fill="#003380"/>
   <path d="m404.95 935.94c5.9045 0 10.658 5.7217 10.658 12.829v23.825c0 7.1072-4.7534 12.829-10.658 12.829s-10.658-5.7217-10.658-12.829v-23.825c0-7.1072 4.7534-12.829 10.658-12.829z" fill="#003380"/>
   <path d="m461.28 935.94c5.9045 0 10.658 5.7217 10.658 12.829v23.825c0 7.1072-4.7534 12.829-10.658 12.829s-10.658-5.7217-10.658-12.829v-23.825c0-7.1072 4.7534-12.829 10.658-12.829z" fill="#003380"/>
   <path transform="matrix(.46382 -.05059 .04974 .45596 519.79 673.15)" d="m-88.305 337.59c0 74.416-59.303 134.74-132.46 134.74s-132.46-60.326-132.46-134.74 59.303-134.74 132.46-134.74 132.46 60.326 132.46 134.74z" fill="#784421"/>
   <path transform="matrix(.37749 0 0 .37109 516.83 732.12)" d="m-88.305 337.59c0 74.416-59.303 134.74-132.46 134.74s-132.46-60.326-132.46-134.74 59.303-134.74 132.46-134.74 132.46 60.326 132.46 134.74z" fill="#d38d5f"/>
   <path transform="matrix(.41052 0 0 .44784 343.73 703.05)" d="m175.09 369.56c0 4.6247-4.0899 8.3738-9.135 8.3738s-9.135-3.7491-9.135-8.3738 4.0899-8.3738 9.135-8.3738 9.135 3.7491 9.135 8.3738z"/>
   <path transform="matrix(.41052 0 0 .44784 386.25 703.05)" d="m175.09 369.56c0 4.6247-4.0899 8.3738-9.135 8.3738s-9.135-3.7491-9.135-8.3738 4.0899-8.3738 9.135-8.3738 9.135 3.7491 9.135 8.3738z"/>
   <path transform="matrix(.51315 0 0 .50002 371.77 665.82)" d="m169 430.46c0 24.805-21.813 44.914-48.72 44.914s-48.72-20.109-48.72-44.914v-1e-5l48.72 1e-5z"/>
   <path d="m429.3 797.99c-0.64427-1e-3 -1.2496 5e-3 -1.8438 0.0156-8.3185 0.15155-12.409 1.3154-19.313 4.9533-17.06 8.989-22.029 14.964-28.291 39.008-3.0369 11.66-3.9599 23.548-1.0938 14.125 1.8859-6.1996 5.6932 3.7512 14.557 1.9463-1.2415 2.5585-4.354 5.6562-6.297 7.7659-0.54587 0.5327-1.7626 0.45165-2.4219 0.84378 3.4772-0.64628 14.336-1.6214 25.22-3.0626-1.2656 1.4991-2.6698 2.9535-3.7345 4.1095-0.54591 0.5327-1.747 0.45166-2.4063 0.84377 3.4789-0.6466 14.33-1.6358 25.22-3.0782-1.0947 1.24-2.2318 2.4208-3.1251 3.3907-0.54592 0.53271-1.747 0.45166-2.4063 0.84378 6.5547-1.2183 39.284-3.6066 49.111-8.094 8.9501-4.087 12.629-7.6888 14.752-9.6933 1.4155 2.5649-0.10481 5.2895 0.82417 8.344 2.8662 9.4224 5.8066-0.9032 2.7697-12.563-3.0618-11.755-6.3132-20.007-11.908-28.074l-0.047-0.0625c-10.525-13.575-27.342-21.334-47.548-21.548l-2.0157-0.0156z" fill="#784421"/>
  </g>
  <g transform="translate(74.751 23.478)">
   <path transform="rotate(46.211)" d="m755.29 486.85c5.9045 0 10.658 5.7217 10.658 12.829v23.825c0 7.1072-4.7534 12.829-10.658 12.829s-10.658-5.7217-10.658-12.829v-23.825c0-7.1072 4.7534-12.829 10.658-12.829z" fill="#3a5065"/>
   <path transform="matrix(-.69201,.72189,.72189,.69201,0,0)" d="m480.88 773.11c5.9045 0 10.658 5.7217 10.658 12.829v23.825c0 7.1072-4.7534 12.829-10.658 12.829s-10.658-5.7217-10.658-12.829v-23.825c0-7.1072 4.7534-12.829 10.658-12.829z" fill="#3a5065"/>
   <path d="m159.44 869.57h77.65v73.083h-77.65v-73.083z" fill="#3a5065"/>
   <path d="m170.1 926.29c5.9045 0 10.658 5.7217 10.658 12.829v23.825c0 7.1072-4.7534 12.829-10.658 12.829s-10.658-5.7217-10.658-12.829v-23.825c0-7.1072 4.7534-12.829 10.658-12.829z" fill="#3a5065"/>
   <path d="m226.43 926.29c5.9045 0 10.658 5.7217 10.658 12.829v23.825c0 7.1072-4.7534 12.829-10.658 12.829s-10.658-5.7217-10.658-12.829v-23.825c0-7.1072 4.7534-12.829 10.658-12.829z" fill="#3a5065"/>
   <path transform="matrix(.37749 0 0 .37109 281.98 722.46)" d="m-88.305 337.59c0 74.416-59.303 134.74-132.46 134.74s-132.46-60.326-132.46-134.74 59.303-134.74 132.46-134.74 132.46 60.326 132.46 134.74z" fill="#deaa87"/>
   <path transform="matrix(.41052 0 0 .44784 108.88 693.4)" d="m175.09 369.56c0 4.6247-4.0899 8.3738-9.135 8.3738s-9.135-3.7491-9.135-8.3738 4.0899-8.3738 9.135-8.3738 9.135 3.7491 9.135 8.3738z"/>
   <path transform="matrix(.41052 0 0 .44784 151.4 693.4)" d="m175.09 369.56c0 4.6247-4.0899 8.3738-9.135 8.3738s-9.135-3.7491-9.135-8.3738 4.0899-8.3738 9.135-8.3738 9.135 3.7491 9.135 8.3738z"/>
   <path transform="matrix(.51315 0 0 .50002 136.93 656.17)" d="m169 430.46c0 24.805-21.813 44.914-48.72 44.914s-48.72-20.109-48.72-44.914v-1e-5l48.72 1e-5z"/>
   <path d="m249.93 823.05c0.51112-0.5656 1.1124-1.1138 1.8054-1.6709 3.8928-3.1299 11.611-5.4882 17.076-5.229 8.7 0.41273 15.276 7.4735 14.944 16.033-0.16391 4.2241-8.7839 16.158-10.033 18.674-0.0476-0.2989 0.37855-0.71086 0.2056-0.99369-0.7602-1.0531-1.7995-2.6991-3.0749-3.5649-0.78-0.52036-1.4968-1.0757-2.2739-1.5973-0.0264 0.072-0.0279 0.1485-0.0522 0.22204-2.3281-2.0757-8.2887-5.3118-14.404-6.9819l-8.588-2.351 1.2992-5.6566c0.75507-3.2683 1.5632-5.1874 3.0966-6.8842z" fill="#a80"/>
   <path d="m194.05 794.49c-7.2948 0.13292-10.878 1.1487-16.932 4.339-13.251 6.982-22.628 18.955-28.415 36.246 12.942 5.6595 28.786 9.0919 45.929 9.5245 0.8513-5.2317 2.8029-16.352 3.6511-16.774 1.0316-0.51344 7.4625 11.865 8.2017 13.387 0.18862 0.38834 0.7451 1.5875 1.4287 3.1219 15.385-1.0597 29.499-4.569 41.167-9.8949-2.541-8.1069-5.8158-15.126-9.8949-21.007-0.0152-0.0195-0.0377-0.0334-0.0528-0.0528-9.2294-11.905-23.977-18.703-41.696-18.89-1.2109-0.0136-2.3444-0.019-3.3865 0zm53.337 48.681c-0.23119 0.22068-0.48831 0.46471-0.79371 0.68788 0.2834-0.20591 0.57498-0.43145 0.79371-0.63496-7e-3 -0.0136 7e-3 -0.0395 0-0.0528z" fill="#a80"/>
   <path d="m148.72 823.05c-0.51112-0.56559-1.1124-1.1138-1.8054-1.6709-3.8928-3.1299-11.611-5.4883-17.076-5.229-8.7 0.41274-15.276 7.4735-14.944 16.033 0.16391 4.2241 8.7839 16.158 10.033 18.674 0.0476-0.29889-0.37855-0.71086-0.2056-0.99368 0.7602-1.0531 1.7995-2.6991 3.0749-3.5649 0.78-0.52037 1.4968-1.0757 2.2739-1.5973 0.0264 0.072 0.0279 0.1485 0.0522 0.22203 2.3281-2.0757 8.2887-5.3118 14.404-6.9819l8.588-2.351-1.2992-5.6566c-0.75507-3.2683-1.5632-5.1874-3.0966-6.8842z" fill="#a80"/>
  </g>
  <path d="m82.564 905.62c4.0858 4.2622 3.2448 11.653-1.8857 16.571l-17.199 16.487c-5.1305 4.9181-12.55 5.4461-16.636 1.1839s-3.2448-11.653 1.8857-16.571l17.199-16.487c5.1305-4.9181 12.55-5.4461 16.636-1.1839z" fill="#d45500"/>
  <path d="m136.67 905.62c-4.0858 4.2622-3.2448 11.653 1.8856 16.571l17.199 16.487c5.1305 4.9181 12.55 5.4461 16.636 1.1839s3.2448-11.653-1.8857-16.571l-17.199-16.487c-5.1305-4.9181-12.55-5.4461-16.636-1.1839z" fill="#d45500"/>
  <path d="m70.794 893.05h77.648v73.08h-77.648v-73.08z" fill="#d45500"/>
  <path d="m81.452 949.77c5.9043 0 10.658 5.7215 10.658 12.828v23.824c0 7.107-4.7533 12.828-10.658 12.828s-10.658-5.7215-10.658-12.828v-23.824c0-7.107 4.7533-12.828 10.658-12.828z" fill="#d45500"/>
  <path d="m160 871.22c0 27.614-22.386 50-50 50s-50-22.386-50-50 22.386-50 50-50 50 22.386 50 50z" fill="#deaa87"/>
  <path d="m137.78 949.77c5.9043 0 10.658 5.7215 10.658 12.828v23.824c0 7.107-4.7533 12.828-10.658 12.828s-10.658-5.7215-10.658-12.828v-23.824c0-7.107 4.7533-12.828 10.658-12.828z" fill="#d45500"/>
  <path d="m92.109 882.38c0 2.0711-1.6789 3.75-3.75 3.75s-3.75-1.6789-3.75-3.75 1.6789-3.75 3.75-3.75 3.75 1.6789 3.75 3.75z"/>
  <path d="m134.63 882.38c0 2.0711-1.6789 3.75-3.75 3.75s-3.75-1.6789-3.75-3.75 1.6789-3.75 3.75-3.75 3.75 1.6789 3.75 3.75z"/>
  <path d="m135 894.89c0 12.403-11.193 22.457-25 22.457s-25-10.054-25-22.457v-1e-5l25 1e-5z"/>
  <path d="m89.683 763.48c-1.5786 0.0637-3.1188 0.30327-4.625 0.78125-3.6982 1.1738-3.7798 1.5094-0.7812 3.1875 4.1154 2.3031 7.2129 10.059 5.6406 14.156-0.84215 2.1947-2.7382 2.7961-6.4844 2.0469-6.3056-1.2611-17.904 1.6198-20.891 5.2188-1.7176 2.0695-1.1915 2.4497 2.4688 1.75 5.427-1.0374 16.562 4.2446 16.563 7.8594 0 1.3961-1.951 3.4786-4.3282 4.625l-4.3125 2.0938 4.375 0.125c5.9586 0.17671 17.791 5.2798 22.516 9.7188 0.9043 0.84952 2.0228 1.548 3.4062 2.125-0.40725 2e-3 -0.81755 9e-3 -1.2031 0.0156-8.2754 0.15076-12.35 1.3028-19.219 4.9219-16.971 8.9423-28.332 25.065-34.563 48.984-3.0211 11.599-3.9452 23.42-1.0937 14.047 1.6153-5.3104 4.1068-10.557 7.3437-15.531-0.2237 0.79533-0.4444 1.5929-0.6562 2.4063-3.0212 11.599-3.9451 23.42-1.0938 14.047 1.7332-5.6976 4.4725-11.321 8.0625-16.609-0.3395 1.164-0.6709 2.3434-0.98435 3.5469-3.0212 11.599-3.9451 23.42-1.0938 14.047 2.8136-9.2498 8.267-18.299 15.734-26.047 2.3435-2.4315 4.9492-5.5327 7.125-8.4375 4.2905 8.2276 13.634 16.554 25.938 22.172 9.776 4.4642 42.339 6.8349 48.859 8.0469-0.65595-0.3901-1.8476-0.31381-2.3906-0.84375-1.9516-2.1191-5.1021-5.2377-6.3125-7.7969-0.7193-1.555-1.5573-3.0723-2.2812-4.625 0.18115 0.0464 0.36385 0.13655 0.54685 0.18751-1.7874-2.7896-3.6932-7.2615-5.1094-12.266 1.0675 1.4219 2.4125 3.2735 3.2031 4.0938 7.4674 7.7477 13.64 15.547 16.453 24.797 2.8514 9.3735 1.9431-2.4477-1.0781-14.047-0.6977-2.6787-1.4678-5.252-2.2969-7.7344 4.5312 5.5112 8.1309 11.25 10.094 17.703 2.8513 9.3735 1.943-2.4477-1.0782-14.047-3.0458-11.694-7.3402-21.506-12.906-29.531-0.017-0.0222-0.0455-0.0404-0.0625-0.0625-7.3391-9.4665-17.754-16.08-30.25-19.266 4.4413-0.35215 6.5529-1.939 11.906-6.6875 6.9519-6.1664 9.4337-7.1779 17.281-7.2031 11.382-0.0365 7.8272-3.147-5.7031-4.9844-13.429-1.8236-12.103-5.5898 2.875-8.1719l8.1718-1.375-8.5313-5.1094c-8.882-5.3154-8.4806-6.5221 2.7656-7.6719l5.7656-0.60937-6.125-3.2969c-9.4346-5.1186-22.12-4.4195-29.359 1.6719l-6 5.0469-6.5938-7.6875c-5.6006-6.5431-12.847-10.057-19.688-9.7813z" fill="#a00"/>
  <g transform="translate(241.43 -321.49)">
   <path transform="matrix(.46943 0 0 .57729 454.99 1001.3)" d="m-88.305 337.59c0 74.416-59.303 134.74-132.46 134.74s-132.46-60.326-132.46-134.74 59.303-134.74 132.46-134.74 132.46 60.326 132.46 134.74z" fill="#fc0"/>
   <path transform="rotate(46.211)" d="m1110 615.34c5.9042 0 10.658 5.7215 10.658 12.828v23.824c0 7.107-4.7533 12.828-10.658 12.828s-10.658-5.7215-10.658-12.828v-23.824c0-7.107 4.7532-12.828 10.658-12.828z" fill="#500"/>
   <path transform="matrix(-.69201,.72189,.72189,.69201,0,0)" d="m624.24 1122.1c5.9043 0 10.658 5.7215 10.658 12.828v23.824c0 7.107-4.7532 12.828-10.658 12.828s-10.658-5.7215-10.658-12.828v-23.824c0-7.107 4.7533-12.828 10.658-12.828z" fill="#500"/>
   <path d="m312.15 1214.5h77.648v73.08h-77.648v-73.08z" fill="#500"/>
   <path d="m322.81 1271.3c5.9043 0 10.658 5.7215 10.658 12.828v23.824c0 7.107-4.7532 12.828-10.658 12.828s-10.658-5.7215-10.658-12.828v-23.824c0-7.107 4.7532-12.828 10.658-12.828z" fill="#500"/>
   <path transform="matrix(.37748 0 0 .37108 435.07 1067.4)" d="m-88.305 337.59c0 74.416-59.303 134.74-132.46 134.74s-132.46-60.326-132.46-134.74 59.303-134.74 132.46-134.74 132.46 60.326 132.46 134.74z" fill="#e9afaf"/>
   <path d="m379.14 1271.3c5.9043 0 10.658 5.7215 10.658 12.828v23.824c0 7.107-4.7532 12.828-10.658 12.828s-10.658-5.7215-10.658-12.828v-23.824c0-7.107 4.7532-12.828 10.658-12.828z" fill="#500"/>
   <path transform="matrix(.41051 0 0 .44783 261.59 1038.4)" d="m175.09 369.56c0 4.6247-4.0899 8.3738-9.135 8.3738s-9.135-3.7491-9.135-8.3738 4.0899-8.3738 9.135-8.3738 9.135 3.7491 9.135 8.3738z"/>
   <path transform="matrix(.41051 0 0 .44783 304.11 1038.4)" d="m175.09 369.56c0 4.6247-4.0899 8.3738-9.135 8.3738s-9.135-3.7491-9.135-8.3738 4.0899-8.3738 9.135-8.3738 9.135 3.7491 9.135 8.3738z"/>
   <path transform="matrix(.51313 0 0 .5 289.64 1001.1)" d="m169 430.46c0 24.805-21.813 44.914-48.72 44.914s-48.72-20.109-48.72-44.914v-1e-5l48.72 1e-5z"/>
   <path d="m350.6 1138.7c-5.6808 0-10.738 1.5341-13.937 3.9063-3.5083-1.5254-7.4226-2.375-11.562-2.375-14.917 0-27.031 11.078-27.031 24.734s12.114 24.75 27.031 24.75c7.5628 0 14.406-2.8489 19.312-7.4375 4.4608 4.294 10.333 7.9304 17.187 10.281 18.483 6.3391 37.085 0.9964 41.516-11.922s-6.9701-28.552-25.453-34.891c-4.1782-1.433-8.3657-2.2601-12.391-2.5469-3.1255-2.7069-8.5304-4.5-14.672-4.5z" fill="#fc0"/>
  </g>
  <path transform="matrix(.76621 .64259 -.64259 .76621 -61.619 -347.49)" d="m796.88 967.66c5.9041 0 10.657 5.7214 10.657 12.828v23.824c0 7.1068-4.7532 12.828-10.657 12.828s-10.657-5.7214-10.657-12.828v-23.824c0-7.1068 4.7532-12.828 10.657-12.828z" fill="#0078c1"/>
  <path transform="matrix(-.79267 -.60965 -.60965 .79267 -61.619 -347.49)" d="m-811.75 923.75c5.9041 0 10.657 5.7214 10.657 12.828v23.824c0 7.1068-4.7531 12.828-10.657 12.828s-10.657-5.7214-10.657-12.828v-23.824c0-7.1068 4.7532-12.828 10.657-12.828z" fill="#0078c1"/>
  <path transform="matrix(.9941 -.10844 .10844 .9941 -61.619 -347.49)" d="m-158.87 1232.3h77.646v73.078h-77.646v-73.078z" fill="#0078c1"/>
  <path transform="matrix(.9941 -.10844 .10844 .9941 -61.619 -347.49)" d="m-148.21 1289c5.9041 0 10.657 5.7214 10.657 12.828v23.824c0 7.1068-4.7531 12.828-10.657 12.828s-10.657-5.7214-10.657-12.828v-23.824c0-7.1068 4.7531-12.828 10.657-12.828z" fill="#0078c1"/>
  <path transform="matrix(.81053 -.58569 .58569 .81053 -61.619 -347.49)" d="m-723.43 1078c5.9041 0 10.657 5.7214 10.657 12.828v23.824c0 7.1068-4.7531 12.828-10.657 12.828s-10.657-5.7214-10.657-12.828v-23.824c0-7.1068 4.7532-12.828 10.657-12.828z" fill="#0078c1"/>
  <path transform="matrix(.4638 -.05059 .04973 .45594 33.822 681.18)" d="m-88.305 337.59c0 74.416-59.303 134.74-132.46 134.74s-132.46-60.326-132.46-134.74 59.303-134.74 132.46-134.74 132.46 60.326 132.46 134.74z"/>
  <path transform="matrix(.37524 -.04093 .04024 .36888 19.94 735.26)" d="m-88.305 337.59c0 74.416-59.303 134.74-132.46 134.74s-132.46-60.326-132.46-134.74 59.303-134.74 132.46-134.74 132.46 60.326 132.46 134.74z" fill="#d38d5f"/>
  <path transform="matrix(.37524 -.04093 .02094 .19197 23.416 767.12)" d="m-88.305 337.59c0 74.416-59.303 134.74-132.46 134.74s-132.46-60.326-132.46-134.74 59.303-134.74 132.46-134.74 132.46 60.326 132.46 134.74z"/>
  <path transform="matrix(.40808 -.04451 .04856 .44518 -155.28 725.14)" d="m175.09 369.56c0 4.6247-4.0899 8.3738-9.135 8.3738s-9.135-3.7491-9.135-8.3738 4.0899-8.3738 9.135-8.3738 9.135 3.7491 9.135 8.3738z"/>
  <path transform="matrix(.40808 -.04451 .04856 .44518 -113.02 720.53)" d="m175.09 369.56c0 4.6247-4.0899 8.3738-9.135 8.3738s-9.135-3.7491-9.135-8.3738 4.0899-8.3738 9.135-8.3738 9.135 3.7491 9.135 8.3738z"/>
  <path transform="matrix(.5101 -.05564 .05422 .49704 -131.44 685.09)" d="m169 430.46c0 24.805-21.813 44.914-48.72 44.914s-48.72-20.109-48.72-44.914v-1e-5l48.72 1e-5z"/>
 </g>
</svg>
